<svg width="40" height="40" viewBox="0 0 40 40" fill="none" xmlns="http://www.w3.org/2000/svg">
<path d="M19.8538 28.8815C20.154 28.9146 20.4251 28.8589 20.7178 28.7988C20.8373 28.7763 20.9568 28.754 21.0764 28.732C21.1336 28.7214 21.1909 28.7108 21.25 28.6998C24.0678 28.1957 27.0827 28.9226 29.4321 30.5225C30.1798 31.0461 30.9289 31.6053 31.5625 32.2656C31.5625 32.3172 31.5625 32.3688 31.5625 32.4219C29.1312 33.252 26.0264 33.3087 23.6719 32.1875C24.3176 33.0549 25.0264 33.6162 26.0156 34.0625C25.8408 34.6097 25.6352 35.1385 25.415 35.6689C25.3826 35.7478 25.3501 35.8266 25.3166 35.9077C25.2373 36.1 25.1578 36.2923 25.0781 36.4844C23.5666 36.0158 22.3233 34.9294 21.416 33.6621C21.3695 33.598 21.3229 33.5339 21.275 33.4679C21.1358 33.2759 20.9975 33.0834 20.8594 32.8906C20.7971 32.804 20.7971 32.804 20.7336 32.7157C20.5141 32.4102 20.2955 32.104 20.0781 31.7969C19.7429 32.1088 19.4914 32.45 19.2334 32.8271C18.8818 33.3332 18.5196 33.8232 18.125 34.2969C18.0696 34.368 18.0696 34.368 18.013 34.4406C17.2671 35.3724 16.1719 36.0395 15.0781 36.4844C14.8064 35.9761 14.575 35.4523 14.3506 34.9219C14.3223 34.8555 14.2941 34.7892 14.265 34.7208C14.2387 34.6583 14.2125 34.5957 14.1855 34.5313C14.1618 34.4749 14.1381 34.4185 14.1137 34.3604C14.0625 34.2188 14.0625 34.2188 14.0625 34.0625C14.1389 34.0246 14.2154 33.9868 14.2941 33.9478C15.1749 33.5016 15.8443 33.0162 16.4062 32.1875C16.3305 32.2186 16.2548 32.2497 16.1768 32.2818C13.795 33.2332 10.9412 33.25 8.51562 32.4219C9.22454 30.8736 11.6647 29.7782 13.1494 29.1602C15.2528 28.3819 17.6861 28.4079 19.8538 28.8815Z" fill="#E1FF00"/>
<path d="M35.8594 24.375C35.7352 24.6902 35.5133 24.8932 35.2686 25.1172C35.2241 25.1579 35.1796 25.1986 35.1338 25.2406C33.5735 26.6348 31.7342 27.6156 29.6875 28.0469C29.6066 28.0646 29.5258 28.0823 29.4424 28.1006C27.6169 28.4304 25.6039 28.2528 23.8281 27.7344C23.8281 27.4219 23.8281 27.4219 23.9352 27.2733C27.0431 24.2124 31.6686 22.8684 35.8594 24.375Z" fill="#E1FF00"/>
<path d="M15.036 26.3876C15.1342 26.4742 15.1342 26.4742 15.2344 26.5625C15.3063 26.6258 15.3782 26.6892 15.4523 26.7545C15.7243 26.9971 15.9946 27.2397 16.25 27.5C16.2242 27.5773 16.1984 27.6547 16.1719 27.7344C15.9723 27.8017 15.786 27.8519 15.5811 27.8955C15.5207 27.9087 15.4603 27.9219 15.398 27.9356C12.3722 28.5767 9.2532 28.2337 6.62466 26.5546C5.89813 26.0778 5.22731 25.5459 4.58496 24.9609C4.54043 24.9206 4.4959 24.8802 4.45002 24.8386C4.34363 24.7395 4.24166 24.6358 4.14062 24.5313C4.14062 24.4797 4.14062 24.4281 4.14062 24.375C7.83377 23.1232 12.0625 23.8588 15.036 26.3876Z" fill="#E1FF00"/>
<path d="M23.5939 3.51562C24.9881 4.07523 26.1036 6.45795 26.6722 7.742C27.7095 10.2008 27.6298 13.0038 26.9533 15.5469C26.6408 15.5469 26.6408 15.5469 26.4668 15.4117C25.0422 13.9522 23.93 12.1845 23.3693 10.2148C23.3544 10.1624 23.3394 10.1099 23.324 10.0558C23.0892 9.1636 23.0184 8.2585 23.0226 7.33887C23.0229 7.24093 23.0232 7.143 23.0235 7.0421C23.058 4.05156 23.058 4.05156 23.5939 3.51562Z" fill="#E1FF00"/>
<path d="M8.12482 6.71875C9.5792 7.33969 10.6635 9.58233 11.2498 10.9375C12.2904 13.5376 12.1616 16.2326 11.4842 18.9062C9.63293 17.7363 8.33946 15.0908 7.85626 13.0225C7.67352 12.2109 7.63451 11.419 7.63165 10.5908C7.6314 10.5303 7.63114 10.4698 7.63088 10.4074C7.62916 9.1485 7.75817 7.92768 8.12482 6.71875Z" fill="#E1FF00"/>
<path d="M36.25 15C36.2075 15.4342 36.1259 15.8242 35.9766 16.2354C35.956 16.2921 35.9355 16.3489 35.9143 16.4073C35.3342 17.967 34.5387 19.4358 33.3594 20.625C33.2965 20.6911 33.2337 20.7571 33.1689 20.8252C33.1029 20.888 33.0368 20.9509 32.9688 21.0156C32.9164 21.0667 32.864 21.1177 32.8101 21.1703C31.3171 22.5785 29.3269 23.4632 27.3438 23.9062C27.7957 21.883 28.6734 20.1132 30 18.5156C30.056 18.4437 30.056 18.4437 30.1132 18.3704C30.4608 17.9362 30.8905 17.605 31.3281 17.2656C31.395 17.2132 31.4619 17.1607 31.5308 17.1066C32.7478 16.1847 34.6714 15 36.25 15Z" fill="#E1FF00"/>
<path d="M31.8749 6.71875C32.79 9.41854 32.6683 12.5419 31.4413 15.1172C31.033 15.9373 30.5708 16.7052 29.9999 17.4219C29.964 17.467 29.9281 17.5121 29.8912 17.5586C29.495 18.0514 29.0951 18.5162 28.5937 18.9062C28.4217 18.456 28.3152 18.0124 28.2324 17.5391C28.2228 17.4844 28.2132 17.4298 28.2033 17.3735C27.6796 14.2694 28.2301 11.2524 30.0588 8.6792C30.4459 8.14529 30.8535 7.6351 31.2988 7.14844C31.3385 7.10483 31.3783 7.06122 31.4192 7.0163C31.6987 6.71875 31.6987 6.71875 31.8749 6.71875Z" fill="#E1FF00"/>
<path d="M16.4841 3.51562C17.3157 6.64843 17.2417 9.82345 15.6214 12.6884C15.1538 13.4911 14.6229 14.2269 13.9872 14.9063C13.839 15.0662 13.7014 15.2311 13.5642 15.4004C13.4965 15.4745 13.4289 15.5486 13.3591 15.625C13.2818 15.625 13.2045 15.625 13.1248 15.625C13.0608 15.3517 12.9975 15.0782 12.9343 14.8047C12.9164 14.7279 12.8984 14.6512 12.8799 14.5721C12.8625 14.4966 12.8451 14.4211 12.8272 14.3433C12.8113 14.2745 12.7953 14.2058 12.7789 14.135C12.6489 13.4705 12.639 12.8136 12.6372 12.1388C12.6365 11.9609 12.6341 11.783 12.6316 11.6051C12.609 8.46593 14.0875 5.88975 16.1826 3.64929C16.3279 3.51562 16.3279 3.51562 16.4841 3.51562Z" fill="#E1FF00"/>
<path d="M3.75 15C4.1842 15.0425 4.57418 15.1242 4.98535 15.2734C5.04171 15.2937 5.09807 15.3139 5.15614 15.3348C6.60592 15.8714 7.85694 16.6194 9.0625 17.5781C9.11567 17.619 9.16885 17.6599 9.22363 17.702C9.65156 18.0448 9.97803 18.475 10.3125 18.9062C10.365 18.9731 10.4174 19.04 10.4715 19.1089C11.3762 20.3032 12.6562 22.355 12.6562 23.9062C10.8271 23.5229 9.12673 22.7097 7.65625 21.5625C7.61468 21.5307 7.57312 21.4989 7.53029 21.4661C6.93857 21.0105 6.46348 20.5179 6.01562 19.9219C5.96366 19.8554 5.91169 19.7889 5.85815 19.7205C4.9344 18.5058 3.75 16.5776 3.75 15Z" fill="#E1FF00"/>
</svg>
