<svg width="298" height="88" viewBox="0 0 298 88" fill="none" xmlns="http://www.w3.org/2000/svg">
<path d="M24.96 34.752C24.96 32.896 24.32 31.648 23.04 31.008C21.76 30.304 20.128 29.952 18.144 29.952C15.712 29.952 13.376 30.176 11.136 30.624C8.89599 31.072 6.65599 31.712 4.41599 32.544V19.104C7.29599 18.464 10.272 17.888 13.344 17.376C16.48 16.8 19.616 16.512 22.752 16.512C26.272 16.512 29.504 16.96 32.448 17.856C35.392 18.688 37.76 20.224 39.552 22.464C41.344 24.704 42.24 27.904 42.24 32.064V72.48H27.264L24.96 64.224V34.752ZM20.16 60.576V72.384C18.496 73.088 16.704 73.44 14.784 73.44C12.224 73.44 9.82399 72.8 7.58399 71.52C5.34399 70.176 3.51999 68.256 2.11199 65.76C0.703987 63.264 -1.32918e-05 60.256 -1.32918e-05 56.736C-1.32918e-05 51.36 1.85599 47.264 5.56799 44.448C9.34399 41.568 14.208 40.096 20.16 40.032V50.208C19.136 50.656 18.304 51.296 17.664 52.128C17.088 52.896 16.8 53.888 16.8 55.104C16.8 56.576 17.12 57.792 17.76 58.752C18.4 59.648 19.2 60.256 20.16 60.576ZM71.7232 17.184V29.952C69.1632 30.208 67.5312 31.52 66.8272 33.888C66.1232 36.192 65.7712 39.616 65.7712 44.16C65.7712 48.512 66.1552 51.616 66.9232 53.472C67.6912 55.264 69.1312 56.16 71.2432 56.16H71.7232V67.488C69.8032 68.256 67.6912 68.64 65.3872 68.64C61.9312 68.64 59.0512 67.968 56.7472 66.624C54.5072 65.216 52.7472 63.328 51.4672 60.96C50.1872 58.528 49.2592 55.808 48.6832 52.8C48.1712 49.728 47.9152 46.528 47.9152 43.2C47.9152 33.6 49.5152 26.752 52.7152 22.656C55.9792 18.56 60.6832 16.512 66.8272 16.512C67.7232 16.512 68.5552 16.576 69.3232 16.704C70.1552 16.832 70.9552 16.992 71.7232 17.184ZM76.5232 25.056L79.1152 17.28H93.8032V65.76C93.8032 73.12 91.9472 78.624 88.2352 82.272C84.5872 85.984 79.3712 87.84 72.5872 87.84C69.9632 87.84 67.3712 87.712 64.8112 87.456C62.2512 87.264 60.1392 87.04 58.4752 86.784C56.8112 86.592 55.9792 86.496 55.9792 86.496V73.44C58.1552 73.696 60.1392 73.888 61.9312 74.016C63.7872 74.208 65.7072 74.304 67.6912 74.304C70.5072 74.304 72.6832 73.76 74.2192 72.672C75.7552 71.648 76.5232 69.952 76.5232 67.584V25.056ZM124.522 34.752C124.522 32.896 123.882 31.648 122.602 31.008C121.322 30.304 119.69 29.952 117.706 29.952C115.274 29.952 112.938 30.176 110.698 30.624C108.458 31.072 106.218 31.712 103.978 32.544V19.104C106.858 18.464 109.834 17.888 112.906 17.376C116.042 16.8 119.178 16.512 122.314 16.512C125.834 16.512 129.066 16.96 132.01 17.856C134.954 18.688 137.322 20.224 139.114 22.464C140.906 24.704 141.802 27.904 141.802 32.064V72.48H126.826L124.522 64.224V34.752ZM119.722 60.576V72.384C118.058 73.088 116.266 73.44 114.346 73.44C111.786 73.44 109.386 72.8 107.146 71.52C104.906 70.176 103.082 68.256 101.674 65.76C100.266 63.264 99.5625 60.256 99.5625 56.736C99.5625 51.36 101.418 47.264 105.13 44.448C108.906 41.568 113.77 40.096 119.722 40.032V50.208C118.698 50.656 117.866 51.296 117.226 52.128C116.65 52.896 116.362 53.888 116.362 55.104C116.362 56.576 116.682 57.792 117.322 58.752C117.962 59.648 118.762 60.256 119.722 60.576ZM149.014 17.28H166.294V72.48H149.014V17.28ZM148.534 5.72205e-06H166.774V13.056H148.534V5.72205e-06ZM196.031 30.048V17.568C198.143 16.864 200.191 16.512 202.175 16.512C206.591 16.512 210.239 17.888 213.119 20.64C216.063 23.392 217.535 27.52 217.535 33.024V72.48H200.255V35.808C200.255 32.352 198.847 30.432 196.031 30.048ZM191.231 24.672V72.48H173.951V17.28H188.639L191.231 24.672ZM244.252 36.384L235.516 50.208L231.868 47.808C228.86 45.824 226.684 43.68 225.34 41.376C223.996 39.072 223.324 36.064 223.324 32.352C223.324 27.04 224.892 23.104 228.028 20.544C231.164 17.92 236.316 16.576 243.484 16.512C246.172 16.512 248.636 16.64 250.876 16.896C253.18 17.088 255.004 17.312 256.348 17.568C257.756 17.824 258.46 17.952 258.46 17.952L257.02 30.72C257.02 30.72 256.54 30.656 255.58 30.528C254.62 30.4 253.372 30.272 251.836 30.144C250.364 29.952 248.828 29.856 247.228 29.856C244.924 29.856 243.26 30.048 242.236 30.432C241.212 30.816 240.7 31.552 240.7 32.64C240.7 33.28 240.892 33.824 241.276 34.272C241.66 34.656 242.268 35.104 243.1 35.616L244.252 36.384ZM239.548 52.8L248.38 39.072L251.548 41.088C254.62 43.072 256.828 45.216 258.172 47.52C259.516 49.76 260.188 52.672 260.188 56.256C260.188 61.952 258.556 66.24 255.292 69.12C252.028 71.936 246.684 73.376 239.26 73.44C235.996 73.44 232.988 73.248 230.236 72.864C227.548 72.544 225.084 72.096 222.844 71.52L224.284 58.464C224.284 58.464 225.468 58.656 227.836 59.04C230.204 59.36 233.34 59.52 237.244 59.52C240.764 59.52 242.524 58.464 242.524 56.352C242.524 55.264 241.724 54.208 240.124 53.184L239.548 52.8ZM263.04 30.24V17.28H270.24V5.18401H287.52V17.28H297.984V30.24H263.04ZM270.24 34.176H287.52V54.144C287.52 55.936 287.968 57.248 288.864 58.08C289.824 58.912 291.328 59.328 293.376 59.328C294.4 59.328 295.296 59.296 296.064 59.232C296.832 59.104 297.472 58.976 297.984 58.848V71.616C296.448 72.128 294.816 72.544 293.088 72.864C291.424 73.248 289.728 73.44 288 73.44C282.112 73.44 277.664 72.192 274.656 69.696C271.712 67.136 270.24 62.592 270.24 56.064V34.176Z" fill="#FF4444"/>
</svg>
